<?xml version="1.0" standalone="no"?>
<!DOCTYPE svg PUBLIC "-//W3C//DTD SVG 20010904//EN" "http://www.w3.org/TR/2001/REC-SVG-20010904/DTD/svg10.dtd">
<svg version="1.0" xmlns="http://www.w3.org/2000/svg"
    width="1598.000000pt" height="1356.000000pt" viewBox="0 0 1598.000000 1356.000000"
    preserveAspectRatio="xMidYMid meet">

    <g transform="translate(0.000000,1356.000000) scale(0.100000,-0.100000)"
        fill="#000000" stroke="none">
        <path
            d="M7630 11188 l-1 -2373 171 -4375 c94 -2406 173 -4390 176 -4408 4
-23 10 -32 24 -32 17 0 20 7 20 41 0 23 74 1997 165 4386 l165 4344 0 2395 0
2394 -360 0 -360 0 0 -2372z" />
        <path
            d="M35 12967 c11 -7 1245 -717 2743 -1577 1497 -861 2722 -1568 2722
-1571 0 -4 -778 -680 -1730 -1503 -951 -823 -1732 -1501 -1735 -1506 -4 -7
964 -9 2672 -8 l2678 3 3 768 2 767 -285 0 -285 0 0 -490 0 -490 -1647 0
-1648 0 25 24 c14 13 597 518 1295 1121 699 604 1273 1104 1278 1111 4 7 6
122 5 255 l-3 241 -1999 1149 c-1100 632 -2002 1151 -2004 1154 -3 3 1053 5
2346 5 l2352 0 2 -497 3 -498 280 0 280 0 3 778 2 777 -3687 0 c-3054 0 -3684
-2 -3668 -13z" />
        <path
            d="M8592 12203 l3 -778 280 0 280 0 3 498 2 497 2352 0 c1293 0 2349 -2
2346 -5 -2 -3 -904 -522 -2004 -1154 l-1999 -1149 -3 -244 c-2 -185 1 -248 10
-260 7 -8 582 -507 1278 -1108 696 -601 1276 -1103 1290 -1116 l25 -24 -1648
0 -1647 0 0 490 0 490 -285 0 -285 0 2 -767 3 -768 2678 -3 c1652 -1 2676 2
2672 7 -3 5 -784 683 -1735 1506 -952 823 -1730 1500 -1730 1503 0 4 1225 711
2723 1571 1497 861 2731 1571 2742 1578 16 11 -612 13 -3668 13 l-3687 0 2
-777z" />
    </g>
</svg>